Coordinates
version=1
nRows=8
nColumns=36
inDegrees=yes

Units are S.I. units (second, meters, Newtons, ...)
If the header above contains a line with 'inDegrees', this indicates whether rotational values are in degrees (yes) or radians (no).

endheader
time	pelvis_tilt	pelvis_list	pelvis_rotation	pelvis_tx	pelvis_ty	pelvis_tz	hip_flexion_r	hip_adduction_r	hip_rotation_r	knee_angle_r	knee_angle_r_beta	ankle_angle_r	subtalar_angle_r	mtp_angle_r	hip_flexion_l	hip_adduction_l	hip_rotation_l	knee_angle_l	knee_angle_l_beta	ankle_angle_l	subtalar_angle_l	mtp_angle_l	lumbar_extension	lumbar_bending	lumbar_rotation	arm_flex_r	arm_add_r	arm_rot_r	elbow_flex_r	pro_sup_r	arm_flex_l	arm_add_l	arm_rot_l	elbow_flex_l	pro_sup_l
      3.20000000	    -10.80641748	     -2.07207075	     -6.41167061	      1.71975881	      1.31544280	      0.15096572	     57.49924158	    -12.36229822	    -17.78652840	     81.41737471	      1.42100126	      1.97196186	    -18.87354922	     -7.49999987	     36.76493438	    -25.07747805	    -14.02833067	     36.46312153	      0.63640153	    -28.90574004	     -9.43538282	     -7.49999987	    -21.52071563	     -0.81158531	      6.55551062	    377.47727901	    -22.77154842	    373.27037461	     28.33112239	     70.23301168	      6.43940992	    -19.36159203	      6.53305538	     32.28055881	     80.14824774
      3.21666670	    -10.46349546	     -1.61175751	     -6.87576996	      1.73399778	      1.29580427	      0.14710915	     53.02829612	    -11.44480541	    -18.76759631	     70.05457012	      1.22268290	     -3.38966011	    -15.63666505	     -7.49999987	     31.72921112	    -22.52249666	    -16.84767059	     26.75092096	      0.46689165	    -33.22194088	     -7.54350323	     -7.49999987	    -18.81272569	     -0.74854983	      7.55352496	    376.43726854	    -22.82348959	    373.58675738	     26.42943748	     70.32649776	      4.68171386	    -19.20118841	      6.82323102	     30.23109781	     80.47858251
      3.23333330	    -10.09855296	     -0.51635852	     -6.50330822	      1.74119875	      1.27182557	      0.14467393	     49.15060672	    -11.41410593	    -18.86159692	     58.59491489	      1.02267419	     -6.96904571	    -12.28907503	     -7.49999987	     29.39943292	    -19.52863264	    -18.45379018	     21.53467644	      0.37585101	    -33.83197076	     -6.37022327	     -7.49999987	    -16.44257199	     -1.29052864	      7.35778121	    375.28998899	    -22.82195347	    373.62692033	     25.63049821	     70.48386188	      3.05278968	    -19.90318571	      7.73709535	     29.24129991	     80.94829121
      3.25000000	     -9.48323271	      0.17656840	     -6.12860301	      1.75256273	      1.25412836	      0.14942787	     43.31613581	    -10.56686023	    -19.50678649	     45.45585250	      0.79335429	    -12.18556225	     -9.21873008	     -7.49999987	     26.42973663	    -16.83443416	    -18.86530217	     16.25220766	      0.28365453	    -33.32200610	     -5.26690064	     -7.49999987	    -13.44965837	     -1.45140612	      7.35947720	    373.77944916	    -22.45814626	    373.81278878	     24.66570609	     70.78167240	      0.75224021	    -20.36956558	      8.36456925	     28.34210901	     81.54669557
      3.26666670	     -8.49188836	      0.87086095	     -5.41080272	      1.77746933	      1.22856994	      0.15739985	     37.02069106	     -9.85000932	    -19.56184055	     33.19770378	      0.57940924	    -16.91403694	     -6.11461333	     -7.49999987	     22.67676238	    -14.09940784	    -19.02629585	     11.28336392	      0.19693185	    -31.43189957	     -3.10472380	     -7.49999987	    -10.50831665	     -1.97571158	      7.00147838	    372.04336612	    -21.54226550	    373.87218567	     23.20887985	     71.09140020	     -1.56473490	    -20.92061571	      9.01616456	     26.85702575	     82.19324442
      3.28333330	     -7.87672133	      2.02489415	     -4.43277451	      1.79180896	      1.19668410	      0.15940125	     31.72851509	     -9.86514347	    -18.66638914	     22.57052519	      0.39392998	    -19.71184338	     -2.80596450	     -7.49999987	     19.86910306	    -11.37889863	    -18.30659292	      8.02499780	      0.14006263	    -29.19255477	     -1.37213959	     -7.49999987	     -7.40273960	     -3.20603737	      6.47616314	    370.11384341	    -20.17502446	    370.58441969	     22.98851919	     73.99266453	     -3.71179028	    -21.97893071	     11.63616453	     25.73488261	     79.94583114
      3.30000000	     -7.23029198	      3.22281359	     -3.82312011	      1.79453352	      1.16949506	      0.15934686	     28.16318433	    -10.43496828	    -16.69665847	     15.81550000	      0.27603255	    -21.25933300	     -1.30656137	     -7.49999987	     18.27152586	     -8.89358427	    -16.90747274	      6.98300335	      0.12187640	    -26.07565874	      0.07483250	     -7.49999987	     -5.72079059	     -4.48972017	      5.73636990	    369.51648906	    -19.15074322	    369.07451884	     23.06635216	     73.00548282	     -5.12948272	    -22.39721557	     11.76504219	     25.37163793	     78.55717761
      3.31666670	     -6.67715815	      4.34804818	     -3.31826339	      1.80173354	      1.13135769	      0.15522643	     26.03272285	    -11.46834160	    -14.77111993	     13.20366618	      0.23044745	    -21.11908776	     -0.31074917	     -7.49999987	     18.26223313	     -6.89721468	    -16.03496115	      9.01973044	      0.15742399	    -23.41965727	     -0.59869231	     -7.49999987	     -4.07580464	     -5.35146718	      5.59223882	    368.72285455	    -18.82886160	    368.77703209	     23.39565288	     72.80771259	     -5.78885436	    -22.35069680	     11.86434499	     25.71462601	     78.27787781
